<svg xmlns="http://www.w3.org/2000/svg" xmlns:xlink="http://www.w3.org/1999/xlink" width="500" zoomAndPan="magnify" viewBox="0 0 375 134.249994" height="179" preserveAspectRatio="xMidYMid meet" version="1.0"><defs><g/><clipPath id="a03f88b7ea"><path d="M 326.125 4.910156 L 367.285156 4.910156 L 367.285156 45.953125 L 326.125 45.953125 Z M 326.125 4.910156 " clip-rule="nonzero"/></clipPath><clipPath id="526d660913"><path d="M 322.324219 28 L 335 28 L 335 41 L 322.324219 41 Z M 322.324219 28 " clip-rule="nonzero"/></clipPath><clipPath id="3120d36a11"><path d="M 351.664062 1.535156 L 368.765625 1.535156 L 368.765625 19.582031 L 351.664062 19.582031 Z M 351.664062 1.535156 " clip-rule="nonzero"/></clipPath></defs><g fill="#5b46b3" fill-opacity="1"><g transform="translate(12.392325, 113.638356)"><g><path d="M 37.671875 -14.375 C 41.160156 -14.539062 43.851562 -14.363281 45.75 -13.84375 C 47.65625 -13.332031 48.726562 -11.847656 48.96875 -9.390625 C 49.195312 -6.847656 48.773438 -4.664062 47.703125 -2.84375 C 46.640625 -1.03125 44.800781 0.15625 42.1875 0.71875 C 39.8125 1.1875 37.195312 1.421875 34.34375 1.421875 C 29.4375 1.421875 25.175781 0.671875 21.5625 -0.828125 C 17.957031 -2.335938 15.1875 -4.796875 13.25 -8.203125 C 11.3125 -11.609375 10.378906 -16.203125 10.453125 -21.984375 C 10.535156 -25.472656 10.578125 -29.117188 10.578125 -32.921875 C 10.578125 -36.722656 10.578125 -40.523438 10.578125 -44.328125 L 10.578125 -50.515625 L 10.453125 -50.515625 C 3.722656 -50.515625 0.359375 -53.046875 0.359375 -58.109375 C 0.359375 -63.179688 2.0625 -65.71875 5.46875 -65.71875 L 10.453125 -65.71875 C 10.453125 -66.75 10.429688 -67.738281 10.390625 -68.6875 C 10.359375 -69.644531 10.34375 -70.632812 10.34375 -71.65625 C 10.34375 -77.519531 13.113281 -81.328125 18.65625 -83.078125 C 21.988281 -84.179688 24.664062 -84.097656 26.6875 -82.828125 C 28.707031 -81.566406 29.71875 -79.347656 29.71875 -76.171875 L 29.71875 -65.71875 L 38.03125 -65.71875 C 44.757812 -65.71875 48.125 -63.222656 48.125 -58.234375 C 48.125 -53.242188 45.078125 -50.75 38.984375 -50.75 L 29.71875 -50.625 C 29.71875 -49.59375 29.695312 -48.5625 29.65625 -47.53125 C 29.613281 -46.507812 29.59375 -45.441406 29.59375 -44.328125 C 29.507812 -40.921875 29.46875 -37.515625 29.46875 -34.109375 C 29.46875 -30.703125 29.46875 -27.453125 29.46875 -24.359375 C 29.46875 -17.628906 32.203125 -14.300781 37.671875 -14.375 Z M 37.671875 -14.375 "/></g></g></g><g fill="#5b46b3" fill-opacity="1"><g transform="translate(63.488558, 113.638356)"><g><path d="M 24.84375 1.1875 C 20.957031 1.1875 17.410156 0.554688 14.203125 -0.703125 C 10.992188 -1.972656 8.4375 -3.9375 6.53125 -6.59375 C 4.632812 -9.25 3.6875 -12.632812 3.6875 -16.75 C 3.6875 -24.195312 6.832031 -29.800781 13.125 -33.5625 C 19.425781 -37.332031 29.273438 -39.019531 42.671875 -38.625 L 42.671875 -42.671875 C 42.671875 -47.023438 42.054688 -49.992188 40.828125 -51.578125 C 39.597656 -53.160156 37.675781 -53.953125 35.0625 -53.953125 C 33.550781 -53.953125 32.160156 -53.734375 30.890625 -53.296875 C 29.628906 -52.859375 28.640625 -52.085938 27.921875 -50.984375 C 26.816406 -49.242188 25.882812 -47.738281 25.125 -46.46875 C 24.375 -45.195312 23.523438 -44.222656 22.578125 -43.546875 C 21.628906 -42.878906 20.164062 -42.546875 18.1875 -42.546875 L 17 -42.546875 C 13.664062 -42.546875 10.988281 -43.457031 8.96875 -45.28125 C 6.945312 -47.101562 6.414062 -49.640625 7.375 -52.890625 C 8.71875 -57.554688 11.765625 -61.039062 16.515625 -63.34375 C 21.273438 -65.644531 27.972656 -66.796875 36.609375 -66.796875 C 54.273438 -66.796875 63.109375 -58.867188 63.109375 -43.015625 C 63.109375 -35.890625 63.125 -29.671875 63.15625 -24.359375 C 63.195312 -19.054688 63.300781 -14.382812 63.46875 -10.34375 C 63.625 -7.007812 62.910156 -4.453125 61.328125 -2.671875 C 59.742188 -0.890625 57.328125 0 54.078125 0 L 53 0 C 46.976562 0 43.734375 -0.953125 43.265625 -2.859375 C 43.097656 -3.328125 42.972656 -3.796875 42.890625 -4.265625 C 42.816406 -4.742188 42.742188 -5.222656 42.671875 -5.703125 C 40.285156 -3.410156 37.546875 -1.6875 34.453125 -0.53125 C 31.367188 0.613281 28.164062 1.1875 24.84375 1.1875 Z M 31.140625 -12.234375 C 33.828125 -12.234375 36.117188 -12.769531 38.015625 -13.84375 C 39.921875 -14.914062 41.550781 -16.441406 42.90625 -18.421875 L 42.90625 -29.109375 C 39.332031 -29.035156 36 -28.757812 32.90625 -28.28125 C 29.820312 -27.8125 27.328125 -26.941406 25.421875 -25.671875 C 23.523438 -24.398438 22.578125 -22.5 22.578125 -19.96875 C 22.578125 -17.75 23.3125 -15.90625 24.78125 -14.4375 C 26.25 -12.96875 28.367188 -12.234375 31.140625 -12.234375 Z M 31.140625 -12.234375 "/></g></g></g><g fill="#5b46b3" fill-opacity="1"><g transform="translate(132.646707, 113.638356)"><g><path d="M 16.28125 0 C 9.550781 0 6.1875 -3.367188 6.1875 -10.109375 C 6.257812 -15.890625 6.332031 -21.570312 6.40625 -27.15625 C 6.488281 -32.738281 6.53125 -38.460938 6.53125 -44.328125 C 6.53125 -49.554688 6.488281 -54.820312 6.40625 -60.125 C 6.332031 -65.4375 6.257812 -70.707031 6.1875 -75.9375 C 6.1875 -82.675781 9.550781 -86.046875 16.28125 -86.046875 L 17 -86.046875 C 23.726562 -86.046875 27.09375 -82.675781 27.09375 -75.9375 C 27.09375 -70.707031 27.09375 -65.4375 27.09375 -60.125 C 27.09375 -54.820312 27.054688 -49.554688 26.984375 -44.328125 C 26.898438 -38.460938 26.878906 -32.738281 26.921875 -27.15625 C 26.960938 -21.570312 27.019531 -15.890625 27.09375 -10.109375 C 27.09375 -3.367188 23.726562 0 17 0 Z M 16.28125 0 "/></g></g></g><g fill="#5b46b3" fill-opacity="1"><g transform="translate(166.037499, 113.638356)"><g><path d="M 64.40625 -11.171875 C 65.519531 -7.765625 65.285156 -5.050781 63.703125 -3.03125 C 62.117188 -1.007812 59.503906 0 55.859375 0 L 52.53125 0 C 46.582031 0 42.78125 -3.085938 41.125 -9.265625 C 39.851562 -13.941406 38.660156 -17.546875 37.546875 -20.078125 C 36.441406 -22.617188 35.195312 -24.382812 33.8125 -25.375 C 32.425781 -26.363281 30.742188 -26.859375 28.765625 -26.859375 L 26.984375 -26.859375 C 26.984375 -24.085938 26.984375 -21.3125 26.984375 -18.53125 C 26.984375 -15.757812 27.019531 -12.953125 27.09375 -10.109375 C 27.09375 -3.367188 23.726562 0 17 0 L 16.28125 0 C 9.550781 0 6.1875 -3.367188 6.1875 -10.109375 C 6.257812 -15.890625 6.332031 -21.570312 6.40625 -27.15625 C 6.488281 -32.738281 6.53125 -38.460938 6.53125 -44.328125 C 6.53125 -49.554688 6.488281 -54.820312 6.40625 -60.125 C 6.332031 -65.4375 6.257812 -70.707031 6.1875 -75.9375 C 6.1875 -82.675781 9.550781 -86.046875 16.28125 -86.046875 L 17 -86.046875 C 23.726562 -86.046875 27.09375 -82.675781 27.09375 -75.9375 C 27.09375 -70.707031 27.09375 -65.4375 27.09375 -60.125 C 27.09375 -54.820312 27.054688 -49.554688 26.984375 -44.328125 L 26.984375 -39.6875 C 29.828125 -41.28125 32.316406 -43.617188 34.453125 -46.703125 C 36.597656 -49.796875 38.265625 -53.164062 39.453125 -56.8125 C 40.398438 -59.738281 41.726562 -61.953125 43.4375 -63.453125 C 45.144531 -64.960938 47.503906 -65.71875 50.515625 -65.71875 L 52.890625 -65.71875 C 56.609375 -65.71875 59.335938 -64.609375 61.078125 -62.390625 C 62.828125 -60.171875 62.789062 -57.359375 60.96875 -53.953125 C 58.75 -49.910156 56.148438 -46.363281 53.171875 -43.3125 C 50.203125 -40.269531 47.175781 -38.113281 44.09375 -36.84375 L 44.09375 -36.359375 C 47.570312 -35.960938 50.460938 -35.007812 52.765625 -33.5 C 55.066406 -32 57.109375 -29.503906 58.890625 -26.015625 C 60.671875 -22.535156 62.507812 -17.585938 64.40625 -11.171875 Z M 64.40625 -11.171875 "/></g></g></g><g fill="#5b46b3" fill-opacity="1"><g transform="translate(237.215738, 113.638356)"><g><path d="M 16.875 -74.046875 C 12.519531 -74.046875 9.367188 -74.835938 7.421875 -76.421875 C 5.484375 -78.003906 4.515625 -80.578125 4.515625 -84.140625 C 4.515625 -87.703125 5.484375 -90.273438 7.421875 -91.859375 C 9.367188 -93.453125 12.519531 -94.25 16.875 -94.25 C 21.3125 -94.25 24.476562 -93.453125 26.375 -91.859375 C 28.28125 -90.273438 29.234375 -87.703125 29.234375 -84.140625 C 29.234375 -80.578125 28.28125 -78.003906 26.375 -76.421875 C 24.476562 -74.835938 21.3125 -74.046875 16.875 -74.046875 Z M 17.234375 0 C 10.492188 0 7.125 -3.367188 7.125 -10.109375 L 7.125 -20.203125 C 7.050781 -28.992188 7.015625 -36.179688 7.015625 -41.765625 C 7.015625 -47.359375 6.972656 -52.015625 6.890625 -55.734375 C 6.890625 -62.390625 10.257812 -65.71875 17 -65.71875 L 17.109375 -65.71875 C 23.847656 -65.71875 27.21875 -62.351562 27.21875 -55.625 C 27.21875 -51.5 27.21875 -47.175781 27.21875 -42.65625 C 27.21875 -38.144531 27.175781 -34.066406 27.09375 -30.421875 C 27.019531 -27.015625 27 -23.628906 27.03125 -20.265625 C 27.070312 -16.898438 27.09375 -13.515625 27.09375 -10.109375 C 27.25 -3.367188 23.960938 0 17.234375 0 Z M 17.234375 0 "/></g></g></g><g fill="#5b46b3" fill-opacity="1"><g transform="translate(270.96302, 113.638356)"><g><path d="M 34.9375 1.1875 C 24.320312 1.1875 16.554688 -1.722656 11.640625 -7.546875 C 6.734375 -13.367188 4.28125 -22.144531 4.28125 -33.875 C 4.28125 -55.820312 14.5 -66.796875 34.9375 -66.796875 C 42.3125 -66.796875 48.234375 -65.25 52.703125 -62.15625 C 57.179688 -59.0625 60.3125 -54.722656 62.09375 -49.140625 C 63.875 -43.554688 64.367188 -37.082031 63.578125 -29.71875 C 63.421875 -28.445312 62.828125 -27.8125 61.796875 -27.8125 L 23.890625 -27.8125 C 24.046875 -23.769531 24.617188 -20.640625 25.609375 -18.421875 C 26.597656 -16.203125 27.90625 -14.675781 29.53125 -13.84375 C 31.15625 -13.007812 33 -12.59375 35.0625 -12.59375 C 38.144531 -12.59375 40.597656 -13.109375 42.421875 -14.140625 C 43.929688 -15.171875 45.101562 -16.160156 45.9375 -17.109375 C 46.769531 -18.066406 47.660156 -18.859375 48.609375 -19.484375 C 49.554688 -20.117188 50.863281 -20.4375 52.53125 -20.4375 C 55.613281 -20.4375 58.066406 -19.664062 59.890625 -18.125 C 61.710938 -16.582031 62.191406 -14.460938 61.328125 -11.765625 C 58.546875 -3.128906 49.75 1.1875 34.9375 1.1875 Z M 24 -38.984375 L 43.5 -38.984375 C 43.65625 -43.734375 42.976562 -47.296875 41.46875 -49.671875 C 39.96875 -52.046875 37.472656 -53.234375 33.984375 -53.234375 C 30.898438 -53.234375 28.445312 -52.066406 26.625 -49.734375 C 24.800781 -47.398438 23.925781 -43.816406 24 -38.984375 Z M 24 -38.984375 "/></g></g></g><g clip-path="url(#a03f88b7ea)"><path fill="#5b46b3" d="M 346.679688 4.957031 C 346.144531 24.515625 345.710938 24.949219 326.152344 25.484375 C 345.710938 26.019531 346.144531 26.449219 346.679688 46.011719 C 347.210938 26.449219 347.644531 26.019531 367.207031 25.484375 C 347.644531 24.949219 347.210938 24.515625 346.679688 4.957031 " fill-opacity="1" fill-rule="nonzero"/></g><g clip-path="url(#526d660913)"><path fill="#5b46b3" d="M 328.246094 28.949219 C 328.089844 34.589844 327.964844 34.714844 322.324219 34.871094 C 327.964844 35.023438 328.089844 35.148438 328.246094 40.789062 C 328.398438 35.148438 328.523438 35.023438 334.164062 34.871094 C 328.523438 34.714844 328.398438 34.589844 328.246094 28.949219 " fill-opacity="1" fill-rule="nonzero"/></g><g clip-path="url(#3120d36a11)"><path fill="#5b46b3" d="M 360.753906 19.523438 C 360.988281 10.953125 361.179688 10.761719 369.75 10.527344 C 361.179688 10.292969 360.988281 10.105469 360.753906 1.535156 C 360.519531 10.105469 360.332031 10.292969 351.761719 10.527344 C 360.332031 10.761719 360.519531 10.953125 360.753906 19.523438 " fill-opacity="1" fill-rule="nonzero"/></g></svg>